   <svg width="38" height="38" viewBox="0 0 16 16" fill="none" xmlns="http://www.w3.org/2000/svg">
                <path d="M8 8.89844C8.21094 8.6875 8.21094 8.33594 8 8.10156L4.8125 4.91406C4.57812 4.70312 4.22656 4.70312 4.01562 4.91406L3.47656 5.45312C3.26562 5.6875 3.26562 6.03906 3.47656 6.25L5.75 8.52344L3.47656 10.7734C3.26562 10.9844 3.26562 11.3359 3.47656 11.5703L4.01562 12.0859C4.22656 12.3203 4.57812 12.3203 4.8125 12.0859L8 8.89844ZM12.5 8.10156L9.3125 4.91406C9.07812 4.70312 8.72656 4.70312 8.51562 4.91406L7.97656 5.45312C7.76562 5.66406 7.76562 6.03906 7.97656 6.25L10.25 8.5L7.97656 10.7734C7.76562 10.9844 7.76562 11.3359 7.97656 11.5703L8.51562 12.0859C8.72656 12.3203 9.10156 12.3203 9.3125 12.0859L12.5 8.89844C12.7109 8.6875 12.7109 8.33594 12.5 8.10156Z" fill="#6B778C"/>
            </svg>