<svg width="32" height="32" viewBox="0 0 24 24" fill="none" xmlns="http://www.w3.org/2000/svg">
<path fill-rule="evenodd" clip-rule="evenodd" d="M16.9394 3C18.2804 3 19.5704 3.53 20.5194 4.481C21.4694 5.43 22.0004 6.71 22.0004 8.05V15.95C22.0004 18.74 19.7304 21 16.9394 21H7.0604C4.2694 21 2.0004 18.74 2.0004 15.95V8.05C2.0004 5.26 4.2594 3 7.0604 3H16.9394ZM18.5304 9.54002L18.6104 9.46002C18.8494 9.17002 18.8494 8.75002 18.5994 8.46002C18.4604 8.31102 18.2694 8.22002 18.0704 8.20002C17.8604 8.18902 17.6604 8.26002 17.5094 8.40002L13.0004 12C12.4204 12.481 11.5894 12.481 11.0004 12L6.50039 8.40002C6.18939 8.17002 5.75939 8.20002 5.50039 8.47002C5.23039 8.74002 5.20039 9.17002 5.42939 9.47002L5.56039 9.60002L10.1104 13.15C10.6704 13.59 11.3494 13.83 12.0604 13.83C12.7694 13.83 13.4604 13.59 14.0194 13.15L18.5304 9.54002Z" fill="#ffffff"/>
</svg>
