<svg width="24" height="24" viewBox="0 0 24 24" fill="none" xmlns="http://www.w3.org/2000/svg">
<path d="M11.7966 4.35377C11.915 4.45081 12.0869 4.45074 12.2053 4.35364C14.5562 2.42579 18.0446 2.55474 20.243 4.757C22.505 7.02499 22.583 10.637 20.479 12.993L12.7067 20.7763C12.316 21.1675 11.682 21.1675 11.2914 20.7762L3.521 12.993C1.417 10.637 1.496 7.019 3.757 4.757C5.95745 2.55751 9.43961 2.4231 11.7966 4.35377ZM18.827 6.17C17.327 4.668 14.907 4.607 13.337 6.017L12.6694 6.61612C12.2896 6.9569 11.7142 6.95713 11.3342 6.61665L10.666 6.018C9.091 4.606 6.676 4.668 5.172 6.172C3.682 7.66199 3.607 10.047 4.98 11.623L11.6462 18.2996C11.8415 18.4953 12.1585 18.4953 12.3538 18.2997L19.02 11.624C20.394 10.047 20.319 7.665 18.827 6.17Z" fill="#6B778C"/>
</svg>
