<svg width="24" height="24" viewBox="0 0 24 24" fill="none" xmlns="http://www.w3.org/2000/svg">
<path fill-rule="evenodd" clip-rule="evenodd" d="M15.3192 16.5101C13.9139 17.6529 12.1214 18.3379 10.1689 18.3379C5.65735 18.3379 2 14.6805 2 10.1689C2 5.65736 5.65735 2 10.1689 2C14.6805 2 18.3378 5.65736 18.3378 10.1689C18.3378 12.1214 17.6529 13.9139 16.5101 15.3192L21.7534 20.5624C22.0822 20.8913 22.0822 21.4245 21.7534 21.7534C21.4245 22.0822 20.8913 22.0822 20.5624 21.7534L15.3192 16.5101ZM3.68421 10.1689C3.68421 6.58751 6.58751 3.6842 10.1689 3.6842C13.7503 3.6842 16.6536 6.58751 16.6536 10.1689C16.6536 11.9358 15.947 13.5377 14.8009 14.7073C14.7843 14.7215 14.768 14.7365 14.7523 14.7523C14.7365 14.768 14.7215 14.7842 14.7073 14.8009C13.5377 15.947 11.9358 16.6537 10.1689 16.6537C6.58751 16.6537 3.68421 13.7504 3.68421 10.1689Z" fill="#ffffff"/>
</svg>
